<!--?xml version="1.0" standalone="no"?-->

<svg xmlns="http://www.w3.org/2000/svg" width="200.000000" height="200.000000" viewBox="0 0 300.000000 236.000000" preserveAspectRatio="xMidYMid meet">
<g transform="translate(0.000000,236.000000) scale(0.100000,-0.100000)" fill="#131210" stroke="none">
<path style="position: relative;" d="M2195 2348 c-2 -7 -6 -42 -10 -78 -9 -95 -33 -199 -55 -247 -11 -24
-20 -46 -20 -49 0 -17 -54 -76 -83 -90 -32 -17 -76 -16 -247 6 -99 12 -357 12
-445 0 -175 -26 -332 -80 -452 -157 -173 -109 -368 -308 -523 -531 -28 -41
-52 -65 -69 -68 -50 -12 -162 -77 -193 -112 -56 -65 -89 -150 -91 -239 -2 -62
1 -78 13 -80 8 -2 22 9 31 24 9 16 42 42 77 61 54 28 72 32 138 32 84 0 107 8
127 47 l14 26 12 -35 c13 -40 26 -48 76 -48 18 0 38 -6 44 -14 7 -8 21 -12 31
-9 11 3 20 1 20 -5 0 -6 10 -12 23 -14 14 -2 29 -16 40 -40 10 -21 23 -38 28
-38 16 0 49 82 49 123 0 49 -27 100 -88 163 -27 27 -57 63 -67 78 -17 25 -17
30 -4 40 8 6 42 32 74 57 33 25 89 63 125 84 62 37 70 40 163 43 81 4 109 1
168 -18 95 -31 212 -103 343 -214 l109 -91 -154 -5 c-149 -5 -154 -6 -157 -27
-5 -37 48 -125 113 -189 129 -124 339 -204 536 -204 l97 0 32 -37 c82 -93 207
-181 378 -267 62 -31 161 -90 221 -130 166 -113 223 -123 301 -50 53 50 53 49
71 212 24 213 -19 383 -178 702 -74 150 -157 279 -323 499 -127 170 -143 203
-134 276 14 122 21 321 13 390 -11 98 -47 176 -97 210 -40 27 -70 32 -77 13z
m-1030 -853 c33 -9 79 -26 103 -38 65 -32 153 -132 218 -249 31 -57 72 -124
90 -150 l34 -48 -35 0 c-30 0 -46 10 -103 64 -123 118 -211 177 -316 212 -138
47 -265 41 -459 -23 -97 -32 -109 -25 -74 43 65 126 212 203 392 204 51 0 117
-7 150 -15z m-480 -283 c-6 -5 -49 -38 -96 -75 -48 -37 -114 -97 -148 -134
-33 -37 -63 -64 -67 -60 -25 24 197 230 288 267 30 11 34 12 23 2z m-258 -126
c-3 -8 -27 -42 -53 -76 -39 -49 -46 -64 -37 -78 21 -35 44 -25 120 50 63 62
76 70 83 56 6 -9 39 -53 75 -98 66 -83 82 -117 71 -146 -5 -13 -12 -11 -41 15
-29 25 -45 31 -81 31 -58 0 -105 20 -128 55 l-18 28 -30 -32 c-29 -31 -30 -31
-129 -31 -98 0 -169 -17 -169 -41 0 -5 -5 -9 -11 -9 -21 0 -2 66 34 123 42 65
113 119 187 142 30 9 60 18 65 20 6 2 23 4 39 4 20 1 27 -3 23 -13z m1439
-151 c33 -21 73 -62 123 -128 42 -55 99 -118 132 -143 69 -53 84 -88 50 -115
-28 -23 -121 -43 -134 -30 -11 11 -10 12 68 34 78 22 74 39 -25 110 -25 18
-76 74 -115 125 -106 139 -146 162 -287 162 -46 0 -80 5 -84 11 -5 8 26 10
108 8 107 -4 118 -6 164 -34z m489 -131 c54 -25 120 -95 140 -147 9 -25 15
-64 13 -93 -4 -71 -28 -71 -135 1 -84 58 -133 112 -133 150 -1 11 -7 38 -15
59 -8 22 -11 44 -8 49 9 14 93 3 138 -19z m-91 -280 c9 -3 35 -34 60 -68 57
-81 115 -133 207 -187 41 -24 105 -75 144 -114 45 -46 87 -78 117 -91 57 -23
63 -39 11 -29 -48 9 -101 36 -182 94 -36 27 -127 81 -201 121 -149 81 -247
143 -300 187 l-34 30 64 22 c36 12 72 26 80 31 18 12 15 11 34 4z m237 -64
c17 -10 28 -50 13 -50 -11 0 -49 23 -56 34 -18 27 6 35 43 16z" id="node1" class="node"></path>
<path style="position: relative;" d="M2760 1220 c-39 -46 -41 -52 -27 -68 18 -21 118 -204 136 -252 8 -19
18 -39 22 -44 17 -19 32 52 33 144 0 82 -4 103 -27 153 -33 72 -64 117 -82
117 -7 0 -32 -23 -55 -50z" id="node2" class="node"></path>
</g>
<g transform="translate(0.000000,236.000000) scale(0.100000,-0.100000)" fill="#A1A1A0" stroke="none">


<path style="position: relative;" d="M853 1486 c-109 -36 -187 -96 -230 -180 -35 -68 -23 -75 74 -43 324
107 513 61 775 -189 57 -54 73 -64 103 -64 l35 0 -34 48 c-18 26 -59 93 -90
150 -65 117 -153 217 -218 249 -115 58 -288 70 -415 29z" id="node5" class="node"></path>

<path style="position: relative;" d="M662 1210 c-91 -37 -313 -243 -288 -267 4 -4 34 23 67 60 34 37 100
97 148 134 119 92 117 90 73 73z" id="node7" class="node"></path>
<path style="position: relative;" d="M365 1095 c-5 -2 -35 -11 -65 -20 -74 -23 -145 -77 -187 -142 -36
-57 -55 -123 -34 -123 6 0 11 4 11 9 0 24 71 41 169 41 99 0 100 0 129 31 l30
32 18 -28 c23 -35 70 -55 128 -55 36 0 52 -6 81 -31 29 -26 36 -28 41 -15 11
29 -5 63 -71 146 -36 45 -69 89 -75 98 -7 14 -20 6 -83 -56 -76 -75 -99 -85
-120 -50 -9 14 -2 29 37 78 62 81 65 90 30 89 -16 0 -33 -2 -39 -4z" id="node8" class="node"></path>
<path style="position: relative;" d="M1594 961 c4 -6 38 -11 84 -11 141 0 181 -23 287 -162 39 -51 90
-107 115 -125 99 -71 103 -88 25 -110 -78 -22 -79 -23 -68 -34 13 -13 106 7
134 30 34 27 19 62 -50 115 -33 25 -90 88 -132 143 -50 66 -90 107 -123 128
-46 28 -57 30 -164 34 -82 2 -113 0 -108 -8z" id="node9" class="node"></path>
<path style="position: relative;" d="M2217 823 c-3 -5 0 -27 8 -49 8 -21 14 -48 15 -59 0 -38 49 -92 133
-150 107 -72 131 -72 135 -1 8 126 -105 251 -239 264 -26 2 -49 0 -52 -5z" id="node10" class="node"></path>
<path style="position: relative;" d="M2230 520 c-8 -5 -44 -19 -80 -31 l-64 -22 34 -30 c53 -44 151 -106
300 -187 74 -40 165 -94 201 -121 81 -58 134 -85 182 -94 52 -10 46 6 -11 29
-30 13 -72 45 -117 91 -39 39 -103 90 -144 114 -92 54 -150 106 -207 187 -25
34 -51 65 -60 68 -19 7 -16 8 -34 -4z" id="node11" class="node"></path>
<path style="position: relative;" d="M2450 463 c1 -18 43 -53 64 -53 15 0 4 40 -13 50 -23 12 -51 13 -51
3z" id="node12" class="node"></path>

</g>
</svg>